<?xml version="1.0" encoding="utf-8"?>
<!-- Generator: Adobe Illustrator 27.3.1, SVG Export Plug-In . SVG Version: 6.00 Build 0)  -->
<svg version="1.1" id="Layer_1" xmlns="http://www.w3.org/2000/svg" xmlns:xlink="http://www.w3.org/1999/xlink" x="0px" y="0px"
	 viewBox="0 0 60 56" style="enable-background:new 0 0 60 56;" xml:space="preserve">
<style type="text/css">
	.st0{fill:#01BAC4;}
</style>
<path class="st0" d="M8.3,13c-0.5-0.4-1.1-0.7-1.7-0.9c-0.8-0.3-1.7-0.6-2.6-0.8c0.5-0.5,1.1-0.9,1.6-1.3C5.7,9.9,5.9,9.8,6,9.7
	l0.8-0.5c1.1-0.8,2.3-1.4,3.5-2c4.7-2.4,9.9-3.4,15.2-3c2.5,0.2,4.8,1,7,2.4c1,0.7,1.8,1.5,2.5,2.6c0.6,1,1,2.1,1.1,3.3
	c0.1,2.4-0.6,4.7-2,6.5c-1.3,1.9-2.8,3.5-4.5,5c-0.7,0.6-1.6,1.1-2.5,1.4c-0.5,0.1-0.9,0.1-1.4-0.1c-0.5-0.2-0.9-0.4-1.2-0.8
	c-0.6-0.8-1-1.7-1-2.7c-0.1-1,0-2,0.3-2.9c0.6-1.9,1.6-3.6,2.9-5c1.3-1.4,2.9-2.5,4.7-3.2c3.2-1.5,6.8-1.7,10.3-0.7
	c3.1,1,5.9,2.9,8.1,5.3c2,2.2,3.6,4.8,4.7,7.6c1,2.4,1.6,5,1.8,7.6c0.3,4.1-0.1,8.2-1.2,12.1c-0.6,2.4-1.5,4.7-2.4,7
	c-0.4,0.8-0.7,1.6-0.9,2.4c0.1,0,0.3,0,0.7-0.7c0.8-1.3,1.6-2.8,2.2-4.3c0.6-1.4,1.1-2.9,1.6-4.5c0.6-2.2,1.1-4.4,1.3-6.6
	c0.3-3.1,0.2-6.2-0.4-9.3c-0.8-4-2.5-7.8-5-11c-1.9-2.6-4.4-4.6-7.2-6.1c-1.4-0.7-2.9-1.2-4.4-1.5c-1.5-0.3-3-0.3-4.5-0.2
	c-3,0.3-5.8,1.4-8.2,3.2c-1.2,0.9-2.3,1.9-3.1,3.1c-0.4,0.6-0.8,1.2-1.2,1.9c-0.1,0.4-0.3,0.7-0.4,1.1c-0.2,0.3-0.3,0.7-0.4,1.1
	c-0.5,1.5-0.7,3.2-0.3,4.9c0.2,0.8,0.5,1.6,1,2.3c0.5,0.7,1.1,1.2,1.9,1.5c0.7,0.2,1.5,0.3,2.3,0.2s1.5-0.4,2.1-0.9
	c0.6-0.4,1.2-0.9,1.8-1.4c0.5-0.5,1-0.9,1.4-1.4c1.9-1.9,3.5-4.1,4.5-6.7c0.5-1.3,0.7-2.7,0.6-4.2C37.5,11,37,9.6,36.3,8.4
	c-1.4-2.2-3.6-3.9-6-4.8c-2.2-0.8-4.5-1.2-6.8-1.2c-4.1,0-8.2,0.9-12,2.5C9.8,5.6,8.1,6.4,6.5,7.5C6.2,7.7,5.8,8,5.4,8.2L5.2,8.4
	L4.7,8.8c-0.6,0.5-1.2,0.9-1.6,1.4C3,8.8,3,6.1,2.8,5.6c-1,1.9-1.1,4.9-1,6.7c0.1,0.1,1.2,0.1,2.6,0.3C5.7,12.8,7,13,8.3,13z"/>
</svg>
