<svg width="60" height="56" viewBox="0 0 60 56" fill="none" xmlns="http://www.w3.org/2000/svg">
<path d="M50.5187 7.12377C51.0436 6.66981 51.4956 6.12507 51.8566 5.51153C52.4184 4.6972 52.9274 3.84165 53.3799 2.95104C53.6739 3.68422 53.9065 4.44636 54.1506 5.17663C54.2154 5.36268 54.2521 5.55143 54.3093 5.73051L54.5899 6.73414C54.9888 8.22392 55.2928 9.74163 55.4998 11.2765C56.3681 17.2048 55.8119 23.2755 53.8848 28.9031C52.9603 31.5178 51.462 33.8492 49.5194 35.6961C48.5878 36.5502 47.4997 37.1811 46.3269 37.5473C45.1844 37.8765 43.985 37.8989 42.8326 37.6126C40.5502 36.892 38.5635 35.3485 37.2016 33.2375C35.7994 31.1985 34.6509 28.9685 33.7858 26.6048C33.3822 25.5966 33.1935 24.5028 33.2338 23.4047C33.2755 22.8663 33.4469 22.3492 33.7308 21.9051C34.0147 21.4609 34.4012 21.1052 34.8517 20.8736C35.7626 20.457 36.7757 20.3817 37.7305 20.6596C38.6934 20.8944 39.5964 21.3568 40.3752 22.0137C41.9964 23.3089 43.3405 24.9678 44.3158 26.8771C45.2911 28.7865 45.8745 30.9013 46.0263 33.0773C46.4651 37.0771 45.6386 41.1197 43.6819 44.5447C41.81 47.5685 39.2264 49.9954 36.1982 51.5745C33.5079 53.0113 30.5872 53.8731 27.5958 54.1127C24.9787 54.3479 22.3437 54.1276 19.7909 53.4601C15.7816 52.4017 11.983 50.5635 8.57994 48.0349C6.48182 46.5133 4.48712 44.8306 2.61117 43C2.00063 42.3147 1.32482 41.7014 0.595036 41.1704C0.517977 41.2701 0.548233 41.4671 1.05359 42.1801C2.09433 43.5501 3.24055 44.8219 4.4799 45.9818C5.68053 47.1366 6.94399 48.2123 8.2635 49.2033C10.1399 50.628 12.1345 51.8608 14.2214 52.8857C17.0626 54.2691 20.0834 55.1705 23.1777 55.5584C27.2349 56.0221 31.3357 55.4319 35.1404 53.8367C38.1512 52.5746 40.8621 50.5965 43.0732 48.0482C44.1557 46.7633 45.0816 45.3334 45.8283 43.7933C46.529 42.2391 47.0461 40.5955 47.3673 38.9012C47.9591 35.5464 47.7549 32.0837 46.7738 28.8377C46.2997 27.2306 45.5989 25.7127 44.6961 24.3379C44.2494 23.6526 43.7575 23.0032 43.2244 22.3947C42.9254 22.1234 42.6264 21.8521 42.3351 21.5878C42.0652 21.2862 41.7672 21.0158 41.4459 20.7808C40.1289 19.6629 38.5466 18.9718 36.8822 18.7875C36.0552 18.6867 35.2179 18.78 34.4271 19.0609C33.6479 19.3487 32.9632 19.8766 32.4569 20.5798C32.0028 21.3169 31.7089 22.1558 31.5973 23.0336C31.4857 23.9114 31.5592 24.8052 31.8124 25.6478C32.0091 26.4824 32.275 27.2961 32.607 28.0788C32.8908 28.7745 33.1876 29.4536 33.5048 30.123C34.7087 32.8655 36.439 35.2981 38.5801 37.2582C39.698 38.2232 40.994 38.9174 42.3806 39.2939C43.7817 39.6679 45.2457 39.6676 46.6468 39.2931C49.2162 38.4727 51.4468 36.7196 52.9643 34.3282C54.3945 32.2088 55.465 29.8305 56.1254 27.3045C57.3258 22.7738 57.7342 18.0401 57.3297 13.3469C57.1521 11.2268 56.8075 9.12694 56.2997 7.07036C56.1882 6.57348 56.051 6.10982 55.9126 5.6309L55.8135 5.28664L55.6115 4.63694C55.3228 3.79558 55.0685 3.02783 54.759 2.36534C56.1037 2.75188 58.6174 3.71867 59.1631 3.62031C57.6729 1.88652 54.8485 0.764898 53.061 0.259235C52.9647 0.383806 52.5561 1.55337 51.9931 3.00685C51.4179 4.34219 50.9253 5.71754 50.5187 7.12377Z" fill="#01BAC4"/>
</svg>
