<?xml version="1.0" encoding="utf-8"?>
<!-- Generator: Adobe Illustrator 27.3.1, SVG Export Plug-In . SVG Version: 6.00 Build 0)  -->
<svg version="1.1" id="Layer_1" xmlns="http://www.w3.org/2000/svg" xmlns:xlink="http://www.w3.org/1999/xlink" x="0px" y="0px"
	 viewBox="0 0 48 48" style="enable-background:new 0 0 48 48;" xml:space="preserve">
<style type="text/css">
	.st0{fill:#F0F9FF;}
	.st1{fill:#193366;}
</style>
<circle class="st0" cx="24" cy="24" r="24"/>
<g>
	<g>
		<g>
			<path class="st1" d="M33.3,27.2c-0.4-0.4-1.2-0.4-1.6,0L29,29.9L28.1,29c-0.4-0.4-1.2-0.4-1.6,0s-0.4,1.2,0,1.6l1.7,1.7
				c0.2,0.2,0.5,0.3,0.8,0.3s0.6-0.1,0.8-0.3l3.5-3.5c0.2-0.2,0.3-0.5,0.3-0.8S33.5,27.5,33.3,27.2z M32.8,28.3l-3.5,3.5
				c-0.1,0.1-0.2,0.1-0.3,0.1s-0.2,0-0.3-0.1L27,30c-0.1-0.1-0.1-0.2-0.1-0.3c0-0.1,0-0.2,0.1-0.3c0.1-0.1,0.2-0.1,0.3-0.1
				c0.1,0,0.2,0,0.3,0.1l1.2,1.2c0.1,0.1,0.2,0.1,0.3,0.1s0.2,0,0.3-0.1l2.9-2.9c0.2-0.2,0.4-0.2,0.6,0C33,27.8,33,27.9,33,28
				C32.9,28.1,32.8,28.2,32.8,28.3z"/>
		</g>
	</g>
	<g>
		<g>
			<path class="st1" d="M35,25.6v-2.9c0-0.2-0.2-0.4-0.4-0.4s-0.4,0.2-0.4,0.4v2.2c-0.5-0.4-1-0.8-1.6-1c0,0,0,0-0.1,0
				c0,0,0,0-0.1,0h-0.1l0,0c-0.3-0.1-0.7-0.2-1-0.3v-2.2c0-0.2-0.2-0.4-0.4-0.4h-2.4c-0.2,0-0.4,0.2-0.4,0.4v2.2
				c-1.2,0.3-2.2,0.9-3.1,1.8c-0.1,0.1-0.1,0.4,0,0.5s0.4,0.1,0.5,0c1.1-1.1,2.6-1.8,4.2-1.8c0.1,0,0.1,0,0.2,0l0,0H30l0,0h0.1l0,0
				c0.7,0.1,1.3,0.2,2,0.5c0,0,0,0,0.1,0c0,0,0,0,0.1,0c0,0,0.1,0,0.1,0.1l0,0c1.9,1,3.2,3,3.2,5.3c0,3.3-2.7,5.9-5.9,5.9
				c-3.1,0-5.6-2.3-5.9-5.3l0,0v-0.1l0,0v-0.1c0,0,0,0,0-0.1v-0.1c0-0.1,0-0.1,0-0.2c0-1.1,0.3-2.2,0.9-3.1c0.1-0.2,0.1-0.4-0.1-0.5
				s-0.4-0.1-0.5,0.1c-0.6,1-1,2.2-1,3.5c0,0.1,0,0.1,0,0.2l0,0v0.1l0,0v0.1l0,0c0,0.6,0.2,1.2,0.4,1.8H12.1v-6
				c0-0.2-0.2-0.4-0.4-0.4s-0.4,0.2-0.4,0.4v6.4c0,0.2,0.2,0.4,0.4,0.4H24c1.1,2.1,3.4,3.6,5.9,3.6c3.7,0,6.7-3,6.7-6.7
				C36.6,28.2,36,26.7,35,25.6z M30.6,23.2H29v-1.6h1.6V23.2z"/>
		</g>
	</g>
	<g>
		<g>
			<path class="st1" d="M17.9,20.8h-2.4c-0.2,0-0.4,0.2-0.4,0.4v2.4c0,0.2,0.2,0.4,0.4,0.4h2.4c0.2,0,0.4-0.2,0.4-0.4v-2.4
				C18.2,20.9,18.1,20.8,17.9,20.8z M17.5,23.2h-1.6v-1.6h1.6V23.2L17.5,23.2z"/>
		</g>
	</g>
	<g>
		<g>
			<path class="st1" d="M22.2,20.8h-2.4c-0.2,0-0.4,0.2-0.4,0.4v2.4c0,0.2,0.2,0.4,0.4,0.4h2.4c0.2,0,0.4-0.2,0.4-0.4v-2.4
				C22.6,20.9,22.4,20.8,22.2,20.8z M21.9,23.2h-1.6v-1.6h1.6V23.2z"/>
		</g>
	</g>
	<g>
		<g>
			<path class="st1" d="M26.6,20.8h-2.4c-0.2,0-0.4,0.2-0.4,0.4v2.4c0,0.2,0.2,0.4,0.4,0.4h2.4c0.2,0,0.4-0.2,0.4-0.4v-2.4
				C27,20.9,26.8,20.8,26.6,20.8z M26.2,23.2h-1.6v-1.6h1.6V23.2z"/>
		</g>
	</g>
	<g>
		<g>
			<path class="st1" d="M17.9,25.9h-2.4c-0.2,0-0.4,0.2-0.4,0.4v2.4c0,0.2,0.2,0.4,0.4,0.4h2.4c0.2,0,0.4-0.2,0.4-0.4v-2.4
				C18.2,26.1,18.1,25.9,17.9,25.9z M17.5,28.3h-1.6v-1.6h1.6V28.3L17.5,28.3z"/>
		</g>
	</g>
	<g>
		<g>
			<path class="st1" d="M22.2,25.9h-2.4c-0.2,0-0.4,0.2-0.4,0.4v2.4c0,0.2,0.2,0.4,0.4,0.4h2.4c0.2,0,0.4-0.2,0.4-0.4v-2.4
				C22.6,26.1,22.4,25.9,22.2,25.9z M21.9,28.3h-1.6v-1.6h1.6V28.3z"/>
		</g>
	</g>
	<g>
		<g>
			<path class="st1" d="M34.7,14.3L34.7,14.3h-2.3V13c0-0.8-0.7-1.5-1.5-1.5s-1.5,0.7-1.5,1.5v1.3H17V13c0-0.8-0.7-1.5-1.5-1.5
				S14,12.2,14,13v1.3h-2.3l0,0c-0.2,0-0.4,0.2-0.4,0.4v10.1c0,0.2,0.2,0.4,0.4,0.4s0.4-0.2,0.4-0.4V19h22.2v2.1
				c0,0.2,0.2,0.4,0.4,0.4s0.4-0.2,0.4-0.4v-2.4v-0.1v-4C35.1,14.4,34.9,14.3,34.7,14.3z M30.2,12.9c0-0.4,0.3-0.7,0.7-0.7
				c0.4,0,0.7,0.3,0.7,0.7v2.9c0,0.1,0,0.1,0,0.1c-0.1,0.3-0.4,0.6-0.7,0.6c-0.4,0-0.7-0.3-0.7-0.7V12.9z M14.8,12.9
				c0-0.4,0.3-0.7,0.7-0.7s0.7,0.3,0.7,0.7v2.9c0,0.4-0.3,0.7-0.7,0.7s-0.7-0.3-0.7-0.7C14.8,15.8,14.8,12.9,14.8,12.9z M34.3,18.3
				H12.2V15h1.9v0.8c0,0.8,0.7,1.5,1.5,1.5s1.5-0.7,1.5-1.5V15h12.4v0.8c0,0.8,0.7,1.5,1.5,1.5s1.5-0.7,1.5-1.5V15h1.9L34.3,18.3
				L34.3,18.3z"/>
		</g>
	</g>
</g>
<g>
	<path class="st0" d="M-695.2,28.5c5.3-94.2,27.6-132.6,156.2-156.1c193.8-35.5,228.7-7.8,281.1,56.7c75,92.5,39.5,145.7-31.2,240.7
		c-70.7,95.1-131.4,140.4-265.5,80.2C-688.8,189.9-700.5,122.7-695.2,28.5z"/>
</g>
</svg>
