<?xml version="1.0" encoding="utf-8"?>
<!-- Generator: Adobe Illustrator 27.3.1, SVG Export Plug-In . SVG Version: 6.00 Build 0)  -->
<svg version="1.1" id="Layer_1" xmlns="http://www.w3.org/2000/svg" xmlns:xlink="http://www.w3.org/1999/xlink" x="0px" y="0px"
	 viewBox="0 0 48 48" style="enable-background:new 0 0 48 48;" xml:space="preserve">
<style type="text/css">
	.st0{fill:#F0F9FF;}
	.st1{fill:#193366;}
</style>
<circle class="st0" cx="24" cy="24" r="24"/>
<g>
	<path class="st1" d="M36.1,26.3L35,25.8c-0.2-0.6-0.4-1.1-0.7-1.6l0.5-1.2c0.1-0.3,0.1-0.7-0.1-0.9c-0.3-0.4-0.7-0.7-1.1-1.1
		c-0.3-0.2-0.6-0.3-0.9-0.1l-1.2,0.5c-0.5-0.3-1.1-0.5-1.6-0.7l-0.5-1.2c-0.1-0.1-0.1-0.3-0.3-0.3v-4.5c0-2.2-4.6-3.4-8.9-3.4
		s-8.9,1.2-8.9,3.4v15.2c0,2.2,4.6,3.4,8.9,3.4c0.2,0,0.5,0,0.7,0c0,0.1,0.1,0.2,0.1,0.2c0.3,0.4,0.7,0.7,1.1,1.1
		c0.3,0.2,0.6,0.3,0.9,0.1l1.2-0.5c0.5,0.3,1.1,0.5,1.6,0.7l0.5,1.2c0.1,0.3,0.4,0.5,0.8,0.6c0.3,0,0.5,0,0.8,0s0.5,0,0.7,0
		c0.3,0,0.6-0.3,0.8-0.6l0.5-1.2c0.6-0.2,1.1-0.4,1.6-0.7l1.2,0.5c0.3,0.1,0.7,0.1,0.9-0.1c0.4-0.3,0.7-0.7,1.1-1.1
		c0.2-0.3,0.3-0.6,0.1-0.9l-0.5-1.2c0.3-0.5,0.5-1.1,0.7-1.6l1.2-0.5c0.3-0.1,0.5-0.4,0.6-0.8c0.1-0.5,0.1-1,0-1.5
		C36.7,26.7,36.4,26.4,36.1,26.3z M20.3,12.2c4.7,0,8,1.3,8,2.5s-3.3,2.5-8,2.5s-8-1.3-8-2.5S15.5,12.2,20.3,12.2z M12.2,16.2
		c1.5,1.2,4.8,1.9,8,1.9s6.5-0.6,8-1.9V19c-0.4,0-0.8,0-1.2,0c-0.3,0-0.6,0.3-0.8,0.6l-0.5,1.2c-0.6,0.2-1.1,0.4-1.6,0.7L22.9,21
		c-0.3-0.1-0.7-0.1-0.9,0.1c-0.4,0.3-0.7,0.7-1.1,1.1c0.1,0,0.1,0,0.1,0.1c-0.2,0-0.5,0-0.7,0c-4.7,0-8-1.3-8-2.5L12.2,16.2
		L12.2,16.2z M12.2,21.3c1.5,1.2,4.8,1.9,8,1.9c0.2,0,0.5,0,0.7,0l0.4,1.1c-0.3,0.5-0.5,1.1-0.7,1.6l-1.2,0.5
		c-0.3,0.1-0.5,0.4-0.6,0.8c0,0.1,0,0.2,0,0.3C14.7,27.3,12,26.1,12,25v-3.7H12.2z M21,32.4c-0.2,0-0.5,0-0.7,0c-4.7,0-8-1.3-8-2.5
		v-3.6c1.1,0.9,3.3,1.7,6.8,1.9c0,0.1,0,0.3,0,0.4c0,0.3,0.3,0.6,0.6,0.8l1.2,0.5c0.2,0.6,0.4,1.1,0.7,1.6L21,32.4z M35.9,28.5
		C35.9,28.5,35.8,28.5,35.9,28.5l-1.4,0.6c-0.1,0.1-0.2,0.2-0.3,0.3c-0.2,0.6-0.4,1.2-0.7,1.8c-0.1,0.1-0.1,0.3,0,0.4l0.6,1.3
		c0,0,0,0,0,0.1c-0.3,0.4-0.6,0.7-1,1c0,0,0,0-0.1,0l-1.3-0.6c-0.1-0.1-0.3,0-0.4,0c-0.6,0.3-1.2,0.6-1.8,0.7
		c-0.1,0-0.2,0.1-0.3,0.3l-0.5,1.4c0,0,0,0-0.1,0c-0.5,0-0.9,0-1.4,0c0,0,0,0-0.1,0l-0.5-1.4c-0.1-0.1-0.2-0.2-0.3-0.3
		c-0.6-0.2-1.2-0.4-1.8-0.7c-0.1-0.1-0.3-0.1-0.4,0L22.8,34h-0.1c-0.4-0.3-0.7-0.6-1-1c0,0,0,0,0-0.1l0.6-1.3c0.1-0.1,0-0.3,0-0.4
		c-0.3-0.6-0.6-1.2-0.7-1.8c0-0.1-0.1-0.2-0.3-0.3l-1.4-0.5c0,0,0,0,0-0.1l0,0c0-0.5,0-0.9,0-1.4c0,0,0,0,0-0.1l1.4-0.5
		c0.1-0.1,0.2-0.2,0.3-0.3c0.2-0.6,0.4-1.2,0.7-1.8c0.1-0.1,0.1-0.3,0-0.4l-0.6-1.3c0,0,0,0,0-0.1c0.3-0.4,0.6-0.7,1-1
		c0,0,0,0,0.1,0l1.3,0.6c0.1,0.1,0.3,0,0.4,0c0.6-0.3,1.2-0.6,1.8-0.7c0.1,0,0.2-0.1,0.3-0.3l0.5-1.4c0,0,0,0,0.1,0
		c0.5,0,0.9,0,1.4,0c0,0,0,0,0.1,0l0.5,1.4c0.1,0.1,0.2,0.2,0.3,0.3c0.6,0.2,1.2,0.4,1.8,0.7c0.1,0.1,0.3,0.1,0.4,0l1.3-0.6h0.1
		c0.4,0.3,0.7,0.6,1,1c0,0,0,0,0,0.1L33.5,24c-0.1,0.1,0,0.3,0,0.4c0.3,0.6,0.6,1.2,0.7,1.8c0,0.1,0.1,0.2,0.3,0.3l1.4,0.5
		c0,0,0,0,0,0.1C35.9,27.6,35.9,28,35.9,28.5L35.9,28.5z"/>
	<path class="st1" d="M27.9,22.3c-3,0-5.5,2.5-5.5,5.5s2.5,5.5,5.5,5.5s5.5-2.5,5.5-5.5S30.9,22.3,27.9,22.3z M27.9,32.4
		c-2.6,0-4.6-2.1-4.6-4.6s2.1-4.6,4.6-4.6s4.6,2.1,4.6,4.6C32.5,30.4,30.4,32.4,27.9,32.4z"/>
	<path class="st1" d="M27.9,24.4c-1.9,0-3.4,1.5-3.4,3.4s1.5,3.4,3.4,3.4s3.4-1.5,3.4-3.4S29.7,24.4,27.9,24.4z M27.9,30.3
		c-1.4,0-2.5-1.1-2.5-2.5s1.1-2.5,2.5-2.5s2.5,1.1,2.5,2.5C30.4,29.2,29.3,30.3,27.9,30.3z"/>
	<path class="st1" d="M13.3,19.4c0.1,0.1,0.3,0.1,0.4,0.2c0.2,0.1,0.5,0,0.5-0.2c0.1-0.2,0-0.4-0.2-0.5c-0.1-0.1-0.3-0.1-0.4-0.2
		c-0.2-0.1-0.5,0-0.6,0.2C13,19,13.1,19.3,13.3,19.4z"/>
	<path class="st1" d="M15.5,20.1c0.1,0,0.3,0.1,0.4,0.1H16c0.2,0,0.4-0.2,0.4-0.4c0-0.2-0.1-0.4-0.3-0.4c-0.1,0-0.3-0.1-0.4-0.1
		c-0.2-0.1-0.5,0.1-0.5,0.3C15.2,19.8,15.3,20.1,15.5,20.1L15.5,20.1L15.5,20.1z"/>
</g>
</svg>
