<?xml version="1.0" encoding="utf-8"?>
<!-- Generator: Adobe Illustrator 27.3.1, SVG Export Plug-In . SVG Version: 6.00 Build 0)  -->
<svg version="1.1" id="Layer_1" xmlns="http://www.w3.org/2000/svg" xmlns:xlink="http://www.w3.org/1999/xlink" x="0px" y="0px"
	 viewBox="0 0 48 48" style="enable-background:new 0 0 48 48;" xml:space="preserve">
<style type="text/css">
	.st0{fill:#F0F9FF;}
	.st1{fill:#193366;}
</style>
<circle class="st0" cx="24" cy="24" r="24"/>
<g>
	<path class="st1" d="M33.9,28.1c0.5,0.5,1.4,0.5,2,0l1.6-1.6c0.3-0.3,0.4-0.6,0.4-1s-0.1-0.7-0.4-1l-5.2-5.2
		c-0.3-0.3-0.6-0.4-1-0.4s-0.7,0.1-1,0.4L28,21.6l-1,1.1l0,0c-0.9-0.7-2.2-0.7-3,0.1L23.8,23l-0.1-0.1c-0.8-0.6-1.9-0.6-2.7,0
		L20.9,23l-2.6-2.6l0,0l-0.7-0.7c-0.6-0.5-1.4-0.5-2,0l-5.2,5.2c-0.3,0.3-0.4,0.6-0.4,1s0.1,0.7,0.4,1l1.6,1.6c0.5,0.5,1.4,0.5,2,0
		l0.1-0.1l3.3,3.3l0,0c-0.6,0.6-0.6,1.5,0,2.1c0.3,0.3,0.6,0.4,1,0.4c0,0.8,0.7,1.4,1.4,1.4c0,0.8,0.7,1.4,1.4,1.4
		c0,0.7,0.6,1.4,1.3,1.4c0.7,0.1,1.4-0.4,1.6-1.1c0.1,0,0.3,0.1,0.4,0.1c0.4,0,0.8-0.1,1-0.4c0.3-0.3,0.4-0.6,0.4-1
		c0.4,0,0.8-0.1,1-0.4c0.3-0.3,0.4-0.6,0.4-1c0.4,0,0.8-0.1,1-0.4c0.3-0.3,0.4-0.6,0.4-1c0.4,0,0.8-0.2,1.1-0.5
		c0.3-0.3,0.4-0.7,0.4-1.1L33.9,28.1L33.9,28.1z M30.9,20c0.1-0.1,0.2-0.1,0.3-0.1c0.1,0,0.2,0,0.3,0.1l5.2,5.2
		c0.2,0.2,0.2,0.5,0,0.7l-1.6,1.6c-0.2,0.2-0.5,0.2-0.7,0L29,21.9L30.9,20z M12.5,27.8l-1.6-1.6c-0.1-0.1-0.1-0.2-0.1-0.3
		c0-0.1,0-0.2,0.1-0.3l5.2-5.2c0.2-0.2,0.5-0.2,0.7,0l1.9,1.9l-5.1,5.1l-0.4,0.4C13,28,12.7,28,12.5,27.8z M17.9,32.4
		c0.2-0.2,0.6-0.2,0.8,0c0.2,0.2,0.2,0.6,0,0.8s-0.6,0.2-0.8,0C17.6,33,17.6,32.6,17.9,32.4L17.9,32.4z M19.3,33.8
		c0.2-0.2,0.6-0.2,0.8,0c0.1,0.1,0.2,0.2,0.2,0.4c0,0.1-0.1,0.3-0.2,0.4c-0.2,0.2-0.6,0.2-0.8,0S19.1,34,19.3,33.8L19.3,33.8z
		 M20.8,35.3c0.2-0.2,0.6-0.2,0.8,0c0.1,0.1,0.2,0.2,0.2,0.4c0,0.1-0.1,0.3-0.2,0.4c-0.2,0.2-0.6,0.2-0.8,0
		C20.5,35.8,20.5,35.5,20.8,35.3L20.8,35.3z M23,37.5c-0.2,0.2-0.6,0.2-0.8,0c-0.2-0.2-0.2-0.6,0-0.8s0.6-0.2,0.8,0
		c0.1,0.1,0.2,0.2,0.2,0.4C23.2,37.3,23.1,37.4,23,37.5L23,37.5z M29.1,32.1c-0.2,0.2-0.6,0.2-0.8,0l-2.9-2.9
		c-0.1-0.1-0.3-0.2-0.5-0.1c-0.2,0-0.3,0.2-0.3,0.3c0,0.2,0,0.3,0.1,0.5l2.8,2.8c0.1,0.1,0.2,0.3,0.2,0.4c0,0.1,0,0.3-0.1,0.4
		c-0.2,0.2-0.6,0.2-0.8,0L24,30.6c-0.1-0.1-0.3-0.2-0.5-0.1c-0.2,0-0.3,0.2-0.3,0.3c0,0.2,0,0.3,0.1,0.5l2.8,2.8
		c0.1,0.1,0.2,0.3,0.2,0.4c0,0.1,0,0.3-0.1,0.4c-0.2,0.2-0.6,0.2-0.8,0l-2.8-2.8c-0.2-0.2-0.5-0.2-0.7,0s-0.2,0.5,0,0.7l2.8,2.8
		c0.2,0.1,0.2,0.4,0.2,0.6c0,0.2-0.2,0.4-0.4,0.4c-0.2,0-0.4,0-0.6-0.2l-0.3-0.3c-0.3-0.3-0.6-0.4-1-0.4c0-0.4-0.2-0.7-0.4-1
		c-0.3-0.3-0.6-0.4-1-0.4c0-0.4-0.2-0.7-0.4-1c-0.3-0.3-0.6-0.4-1-0.4c0-0.4-0.2-0.8-0.5-1.1c-0.3-0.3-0.7-0.4-1.1-0.4l-3.6-3.6
		l4.8-4.8l1.1,1.1l0,0l0,0l0,0h0.1h0.1l0,0l0,0h0.1h0.1c0,0,0.1,0,0.1-0.1l0,0l0,0l0,0l0.1-0.1l0.1-0.1c0.5-0.3,1.1-0.3,1.6,0
		L20.6,26c-0.6,0.6-0.6,1.5,0,2.1s1.5,0.6,2.1,0l1.5-1.5l4.7,4.7C29.3,31.5,29.3,31.9,29.1,32.1L29.1,32.1z M29.8,30.7L29.8,30.7
		l-2.5-2.5l-1.5-1.5c0.5-0.1,0.9-0.3,1.2-0.6c0.1-0.1,0.2-0.2,0.2-0.3c0.1-0.2,0.1-0.5-0.1-0.6s-0.5-0.1-0.6,0.1l-0.1,0.1
		c-0.5,0.5-1.2,0.5-1.7,0.1c-0.1-0.1-0.3-0.1-0.5,0c0,0-0.1,0-0.1,0.1l0,0l-1.8,1.8c-0.2,0.2-0.6,0.2-0.8,0
		c-0.1-0.1-0.2-0.2-0.2-0.4c0-0.1,0.1-0.3,0.2-0.4l2.4-2.4l0,0c0.1,0,0.1-0.1,0.1-0.1l0.5-0.5c0.5-0.5,1.4-0.5,1.9,0l0.1,0.1l0,0
		l0,0l0,0l0.1,0.1l0,0c0,0,0.1,0,0.2,0s0.1,0,0.2,0l0,0c0,0,0,0,0.1,0l0,0l0,0l1.1-1.1l4.8,4.8L29.8,30.7z"/>
	<path class="st1" d="M13.2,25.5c-0.1-0.1-0.4-0.2-0.6-0.1c-0.2,0.1-0.3,0.3-0.3,0.5s0.1,0.4,0.3,0.5s0.4,0,0.6-0.1
		C13.4,26.1,13.4,25.7,13.2,25.5z"/>
	<path class="st1" d="M35.2,25.9c0.1-0.1,0.2-0.4,0.1-0.6C35.2,25.1,35,25,34.8,25s-0.4,0.1-0.5,0.3c-0.1,0.2,0,0.4,0.1,0.6
		C34.7,26.1,35,26.1,35.2,25.9z"/>
	<path class="st1" d="M17.3,18.1c0.3,0,0.5-0.2,0.5-0.5V12c0-0.3-0.2-0.5-0.5-0.5s-0.5,0.2-0.5,0.5v2.3h-2.3V12
		c0-0.3-0.2-0.5-0.5-0.5s-0.5,0.2-0.5,0.5v5.6c0,0.3,0.2,0.5,0.5,0.5s0.5-0.2,0.5-0.5v-2.3h2.3v2.3C16.8,17.9,17.1,18.1,17.3,18.1z"
		/>
	<path class="st1" d="M29,12.5c0.3,0,0.5-0.2,0.5-0.5s-0.2-0.5-0.5-0.5h-3.3c-0.3,0-0.5,0.2-0.5,0.5v5.6c0,0.3,0.2,0.5,0.5,0.5H29
		c0.3,0,0.5-0.2,0.5-0.5s-0.2-0.5-0.5-0.5h-2.8v-1.9H29c0.3,0,0.5-0.2,0.5-0.5s-0.2-0.5-0.5-0.5h-2.8v-1.9H29V12.5z"/>
	<path class="st1" d="M24.8,13.4c0-1-0.8-1.9-1.9-1.9H21c-0.3,0-0.5,0.2-0.5,0.5v5.6c0,0.3,0.2,0.5,0.5,0.5s0.5-0.2,0.5-0.5v-2.3
		h1.1l1.3,2.5c0.1,0.1,0.2,0.2,0.4,0.3c0.2,0,0.3-0.1,0.4-0.2s0.1-0.3,0-0.5l-1.1-2.3C24.3,14.9,24.8,14.2,24.8,13.4z M22.9,14.3
		h-1.4v-1.9h1.4c0.5,0,0.9,0.4,0.9,0.9C23.8,13.9,23.4,14.3,22.9,14.3z"/>
	<path class="st1" d="M18.7,12v5.6c0,0.3,0.2,0.5,0.5,0.5s0.5-0.2,0.5-0.5V12c0-0.3-0.2-0.5-0.5-0.5C18.9,11.5,18.7,11.8,18.7,12z"
		/>
	<path class="st1" d="M30.4,11.5c-0.3,0-0.5,0.2-0.5,0.5v5.6c0,0.3,0.2,0.5,0.5,0.5h1.4c1.3,0,2.3-1,2.3-2.3v-1.9
		c0-1.3-1-2.3-2.3-2.3h-1.4V11.5z M33.2,13.9v1.9c0,0.8-0.6,1.4-1.4,1.4h-0.9v-4.7h0.9C32.5,12.5,33.2,13.1,33.2,13.9z"/>
</g>
</svg>
