<?xml version="1.0" encoding="utf-8"?>
<!-- Generator: Adobe Illustrator 27.3.1, SVG Export Plug-In . SVG Version: 6.00 Build 0)  -->
<svg version="1.1" id="Capa_1" xmlns="http://www.w3.org/2000/svg" xmlns:xlink="http://www.w3.org/1999/xlink" x="0px" y="0px"
	 viewBox="0 0 512 512" style="enable-background:new 0 0 512 512;" xml:space="preserve">
<style type="text/css">
	.st0{fill:#1A49BA;}
</style>
<g>
	<path class="st0" d="M289.9,125.7c3.5,2,8,0.9,10.1-2.7l10.1-17.6c2-3.5,0.8-8-2.7-10.1c-3.5-2-8-0.8-10.1,2.7l-10.1,17.6
		C285.2,119.2,286.4,123.7,289.9,125.7z"/>
	<path class="st0" d="M341.5,174.7c1.3,0,2.5-0.3,3.7-1l17.6-10.1c3.5-2,4.7-6.6,2.7-10.1c-2-3.5-6.6-4.7-10.1-2.7l-17.6,10.1
		c-3.5,2-4.7,6.6-2.7,10.1C336.5,173.3,339,174.7,341.5,174.7L341.5,174.7z"/>
	<path class="st0" d="M300,342.4c-2-3.5-6.6-4.7-10.1-2.7c-3.5,2-4.7,6.6-2.7,10.1l10.1,17.6c4.7,8.4,17.7,0.8,12.8-7.4L300,342.4z"
		/>
	<path class="st0" d="M166.4,339.7c-3.5-2-8-0.8-10.1,2.7L146.2,360c-2,3.5-0.8,8,2.7,10.1c3.5,2,8,0.9,10.1-2.7l10.1-17.6
		C171.1,346.3,169.9,341.8,166.4,339.7z"/>
	<path class="st0" d="M111.1,291.8l-17.6,10.1c-3.5,2-4.7,6.6-2.7,10.1c2,3.6,6.6,4.7,10.1,2.7l17.6-10.1c3.5-2,4.7-6.6,2.7-10.1
		S114.6,289.8,111.1,291.8z"/>
	<path class="st0" d="M104.6,232.7c0-4.1-3.3-7.4-7.4-7.4H77c-4.1,0-7.4,3.3-7.4,7.4s3.3,7.4,7.4,7.4h20.3
		C101.3,240.1,104.6,236.8,104.6,232.7z"/>
	<path class="st0" d="M93.5,163.5c2.6,1.1,18.5,11.7,21.2,11.1c7.2,0.3,10.2-10.3,3.7-13.8l-17.6-10.1
		C92.7,145.8,85.2,158.9,93.5,163.5z"/>
	<path class="st0" d="M156.3,123c2,3.6,6.6,4.7,10.1,2.7c3.5-2,4.7-6.6,2.7-10.1L159,98.1c-2-3.5-6.6-4.7-10.1-2.7
		c-3.5,2-4.7,6.6-2.7,10.1L156.3,123z"/>
	<path class="st0" d="M228.2,109.2c4.1,0,7.4-3.3,7.4-7.4V81.5c0-4.1-3.3-7.4-7.4-7.4s-7.4,3.3-7.4,7.4v20.3
		C220.8,105.9,224.1,109.2,228.2,109.2z"/>
	<path class="st0" d="M278.8,208.5c7.1,0,13.8-2.8,18.9-7.8c8.6-8.6,10.1-21.6,4.5-31.8l29.6-29.6c2.9-2.9,2.9-7.6,0-10.4
		c-2.9-2.9-7.6-2.9-10.4,0l-29.6,29.6c-3.9-2.2-8.3-3.3-12.9-3.3c-7.1,0-13.8,2.8-18.9,7.8c-8.6,8.6-10.1,21.6-4.5,31.8l-6.7,6.7
		c-6.2-4.6-14-7.3-22.3-7.3c-18.2,0-33.5,13-36.9,30.3h-24.6v-10.7c0-4-2.2-7.8-5.7-9.8c-3.5-2-7.8-2-11.3,0l-31.4,18.1
		c-3.5,2-5.7,5.8-5.7,9.8s2.2,7.8,5.7,9.8h0l31.4,18.1c7.2,4.4,17.2-1.4,17-9.8v-10.7h24.6c3,15.1,15.1,27,30.3,29.7v81.5h-10.7
		c-4,0-7.8,2.2-9.8,5.7c-2,3.5-2,7.8,0,11.3l18.1,31.4c2,3.5,5.8,5.7,9.8,5.7h0c4,0,7.8-2.2,9.8-5.7l0,0l18.1-31.4
		c2-3.5,2-7.8,0-11.3c-2-3.5-5.8-5.7-9.8-5.7h-10.7v-81.8c16.9-3.7,29.6-18.8,29.6-36.8c0-7.1-2-13.7-5.4-19.4l7.1-7.1
		C269.8,207.4,274.2,208.5,278.8,208.5L278.8,208.5z M150.2,243.9l-21-12.2l21-12.2V243.9z M227.2,386.1l-12.2-21h24.3L227.2,386.1z
		 M226.5,254.6c-12.6,0-22.9-10.3-22.9-22.9s10.3-22.9,22.9-22.9c12.6,0,22.9,10.3,22.9,22.9C249.4,244.4,239.1,254.6,226.5,254.6z
		 M290.6,181.9c0,6.6-5.3,11.9-11.9,11.9s-11.9-5.3-11.9-11.9s5.3-11.9,11.9-11.9S290.6,175.3,290.6,181.9z"/>
	<path class="st0" d="M497,278.7c0-6.8-0.8-13.6-2.2-20.2c-0.9-4-4.8-6.5-8.8-5.6c-4,0.9-6.5,4.8-5.6,8.8c1.2,5.5,1.9,11.3,1.9,17
		c0,42.4-34.5,77-77,77s-77-34.5-77-77s34.5-77,77-77c25.6,0,49.5,12.7,63.8,33.9c2.3,3.4,6.9,4.3,10.2,2c3.4-2.3,4.3-6.9,2-10.2
		c-8.1-11.9-18.7-21.6-30.8-28.5c-7-48.4-29.1-92.4-64-127.3C343.8,28.8,286.9,5.3,226.5,5.3c-57.8,0-112.8,21.8-154.9,61.3
		c-3,2.8-3.1,7.5-0.3,10.4c2.8,3,7.5,3.1,10.4,0.3c39.3-36.9,90.7-57.3,144.8-57.3c56.5,0,109.7,22,149.7,62
		c30.4,30.4,50.4,68.1,58.2,109.6c-6.5-2.2-13.2-3.6-20.1-4.3c-9.7-41-33-78.2-65.8-105.1c-34.3-28.1-77.6-43.5-121.9-43.5
		c-106.4,0-192.9,86.6-192.9,192.9s86.6,192.9,192.9,192.9c53.7,0,105.2-22.6,141.7-62.1c6.2,2.8,12.8,4.9,19.7,6.2
		c-3.7,4.4-7.6,8.6-11.7,12.7c-40,40-93.1,62-149.7,62c-56.5,0-109.7-22-149.7-62c-40-40-62-93.1-62-149.7
		c0-48.6,15.9-94.2,46.1-131.9c2.5-3.2,2-7.8-1.2-10.4c-3.2-2.5-7.8-2-10.4,1.2C17.1,130.9,0,179.7,0,231.7
		c0,60.5,23.6,117.4,66.3,160.1s99.6,66.3,160.1,66.3s117.4-23.6,160.1-66.3c6.7-6.8,13.1-14,18.9-21.5
		C456,370.3,497,329.2,497,278.7L497,278.7z M226.5,409.9c-98.2,0-178.2-79.9-178.2-178.2S128.2,53.6,226.5,53.6
		c81,0,152.4,55.8,172.5,133.6c-47.6,3.3-85.4,43.1-85.4,91.5c0,31.9,16.4,60.1,41.2,76.5C321.2,390.1,274.9,409.9,226.5,409.9
		L226.5,409.9z"/>
	<path d="M405.8,340.9c4-0.1,7.2-3.6,7.2-7.7V328c12.5-3.1,20.5-13.8,22.3-24.3c2.3-13.7-4.9-25.6-18.2-30.3c-1.3-0.5-2.7-1-4.1-1.5
		v-24.3c2.8,1,4.4,2.4,4.5,2.5l-0.1-0.1c7.2,5.4,16-4.2,10-10.9c-0.3-0.3-5.7-5.1-14.5-6.8v-4c0-4-3.1-7.6-7.2-7.7
		c-4.2-0.1-7.6,3.2-7.6,7.4v4.8c-0.5,0.1-1,0.3-1.5,0.4c-8.9,2.7-15.5,10.2-17.3,19.8c-1.6,8.7,1.2,17.2,7.4,22.1
		c3,2.3,6.6,4.4,11.4,6.7v32.1c-3.4-0.5-6-1.6-10-4.2c-3.4-2.2-8-1.5-10.3,1.8c-2.4,3.4-1.5,8.2,2,10.4c7.2,4.7,12.2,6.3,18.3,6.8
		v4.8C398.2,337.7,401.6,341,405.8,340.9z M420.7,301.2c-0.7,4.2-3.3,8.6-7.8,11v-24.7C421.4,291,421.2,298.2,420.7,301.2
		L420.7,301.2z M395.9,263.5c-1.8-1.4-2.6-4.5-2-7.7c0.5-2.4,1.8-5.2,4.3-7v16.3C397.3,264.6,396.6,264,395.9,263.5z"/>
	<path class="st0" d="M456.1,394.9c-30.8,0-55.9,25.1-55.9,55.9c0,16.1,7,31.4,19.1,42.1c3.1,2.7,7.7,2.4,10.4-0.7
		c2.7-3.1,2.4-7.7-0.7-10.4c-8.9-7.8-14-19.1-14-31c0-22.7,18.4-41.1,41.1-41.1s41.1,18.4,41.1,41.1s-18.4,41.1-41.1,41.1
		c-4.1,0-7.4,3.3-7.4,7.4s3.3,7.4,7.4,7.4c30.8,0,55.9-25.1,55.9-55.9S486.9,394.9,456.1,394.9L456.1,394.9z"/>
</g>
</svg>
