<?xml version="1.0" encoding="utf-8"?>
<!-- Generator: Adobe Illustrator 27.3.1, SVG Export Plug-In . SVG Version: 6.00 Build 0)  -->
<svg version="1.1" id="Capa_1" xmlns="http://www.w3.org/2000/svg" xmlns:xlink="http://www.w3.org/1999/xlink" x="0px" y="0px"
	 viewBox="0 0 480 480" style="enable-background:new 0 0 480 480;" xml:space="preserve">
<style type="text/css">
	.st0{fill:#1A49BA;}
</style>
<g>
	<g>
		<path class="st0" d="M179.8,242.5l-9.7-3.8c-1.6-0.6-2.6-2.3-2.1-4c0.2-1,0.9-1.8,1.8-2.2c1-0.5,2.1-0.6,3.2-0.1l16.2,6.3
			l5.8-14.9l-16.1-6.3c-5.3-2.1-11.2-1.8-16.3,0.8c-9.5,4.8-13.4,16.5-8.5,26.1c2.2,4.3,5.8,7.6,10.3,9.3l9.7,3.8
			c1.6,0.6,2.6,2.3,2.1,4c-0.2,1-0.9,1.8-1.8,2.2c-1,0.5-2.1,0.6-3.2,0.1l-16.2-6.3l-5.8,14.9l16.1,6.3c5.3,2.1,11.2,1.8,16.3-0.8
			c9.5-4.8,13.4-16.5,8.5-26.1C187.9,247.5,184.2,244.2,179.8,242.5z"/>
	</g>
</g>
<g>
	<g>
		<path class="st0" d="M280,168c-0.9,0-1.9,0.2-2.7,0.5L229,186c-21.9,7.9-46.3,3.5-63.9-11.6c-16.9-14.5-39.1-21.3-61.2-18.9
			L63.1,160c-4.1,0.4-7.1,3.9-7.1,8v124.5c0,4.4,3.6,8,8,8c0.3,0,0.6,0,0.9,0l40.7-4.5c17.4-2.7,35.2,1.8,49,12.7
			c22,18.9,52.5,24.4,79.8,14.5l48.2-17.5c3.2-1.1,5.3-4.2,5.3-7.5V176C288,171.6,284.4,168,280,168z M72,175.2l30.9-3.4
			C98.8,187.5,87.3,200.3,72,206C72,206,72,175.2,72,175.2z M72,283.6V260l1.5-0.2c13.4-1.4,25.9,7.2,29.4,20.3L72,283.6z
			 M272,292.5l-30.4,11.1c3.8-15.9,15.2-28.9,30.4-34.8V292.5z M272,251.6l-0.6,0.2c-26,7.7-44.6,30.6-46.9,57.6
			c-20.7,5.9-43,1-59.4-12.9c-12.9-10.7-29.1-16.7-45.9-17c-4.1-22.3-24.6-37.8-47.2-35.6v-21.3c24.3-6.6,42.7-26.5,47.3-51.3
			c13.1,1.3,25.4,6.6,35.4,15.2c21.6,18.4,51.3,24.1,78.2,15c1.7,10.2,7.2,19.4,15.5,25.5c6.1,4.4,13.4,6.8,21,6.8
			c0.9,0,1.8-0.2,2.6-0.2V251.6z M272,217.6c-5,0.6-10.1-0.6-14.2-3.5c-5.6-4.4-9-11-9.4-18l23.7-8.6V217.6z"/>
	</g>
</g>
<g>
	<g>
		<rect x="168" y="80" width="16" height="32"/>
	</g>
</g>
<g>
	<g>
		<rect x="251" y="116" transform="matrix(0.7071 -0.7071 0.7071 0.7071 -9.1989 225.8207)" width="33.9" height="16"/>
	</g>
</g>
<g>
	<g>
		<rect x="206.1" y="96" transform="matrix(0.4472 -0.8944 0.8944 0.4472 30.8244 257.81)" width="35.8" height="16"/>
	</g>
</g>
<g>
	<g>
		<rect x="76" y="107" transform="matrix(0.7071 -0.7071 0.7071 0.7071 -63.079 95.7123)" width="16" height="33.9"/>
	</g>
</g>
<g>
	<g>
		<rect x="120" y="86.1" transform="matrix(0.8944 -0.4472 0.4472 0.8944 -32.9965 68.2162)" width="16" height="35.8"/>
	</g>
</g>
<g>
	<g>
		<path class="st0" d="M436.3,56.7c2.5-5.2,3.7-10.9,3.7-16.7c0-22.1-17.9-40-40-40s-40,17.9-40,40c0,5.8,1.3,11.5,3.7,16.7
			c-25.2,4.2-43.7,26-43.7,51.6V184c0,4.4,3.6,8,8,8c0,0,0,0,0,0h24v104c0,4.4,3.6,8,8,8c0,0,0,0,0,0h80c4.4,0,8-3.6,8-8
			c0,0,0,0,0,0V192h24c4.4,0,8-3.6,8-8c0,0,0,0,0,0v-75.7C480,82.7,461.5,60.9,436.3,56.7z M464,176h-16V96h-16v192h-24V176h-16v112
			h-24V96h-16v80h-16v-67.7c0-20,16.2-36.2,36.3-36.3h6.8c4.4,0,8-3.6,8-8c0-2.3-1-4.5-2.7-6c-5.3-4.5-8.3-11.1-8.3-18
			c0-13.3,10.7-24,24-24s24,10.7,24,24c0,6.9-3,13.5-8.3,18c-3.3,2.9-3.7,8-0.8,11.3c1.5,1.7,3.7,2.7,6,2.7h6.8
			c20,0,36.2,16.2,36.3,36.3V176z"/>
	</g>
</g>
<g>
	<g>
		<path class="st0" d="M303.3,359c-2.5-9.1-10.9-15.4-20.3-15h-0.1l-168.5,15.8l-21.2-14.2c-1.4-1.1-3.1-1.6-4.9-1.6H48
			c0-4.4-3.6-8-8-8c0,0,0,0,0,0H8c-4.4,0-8,3.6-8,8c0,0,0,0,0,0v96c0,4.4,3.6,8,8,8c0,0,0,0,0,0h32c4.4,0,8-3.6,8-8c0,0,0,0,0,0
			h14.2l70.5,39c2.6,1.4,5.7,1.3,8.2-0.2l153-96.9C301.9,377.3,305.7,367.9,303.3,359z M32,432H16v-80h16V432z M285.6,368.2
			L285.6,368.2l-149.3,94.5L68.1,425c-1.2-0.7-2.5-1-3.9-1H48v-64h37.8l22,14.7c0.1,0,0.2,0.1,0.2,0.1l30.4,20.2
			c5.5,3.6,7,10.9,3.4,16.3c-0.2,0.2-0.3,0.5-0.5,0.7c-3.9,4.9-11,6.2-16.3,2.8l-32.4-21.5l-8.9,13.3l32.5,21.6
			c12.4,8.2,28.9,5.3,37.9-6.5c9.3-12.2,6.9-29.7-5.3-39c-0.5-0.4-1-0.7-1.5-1.1l-11.7-7.8l148-13.9c2-0.1,3.8,1.3,4.2,3.2
			C288.4,365.2,287.4,367.3,285.6,368.2z"/>
	</g>
</g>
</svg>
