<svg width="15" height="15" viewBox="0 0 15 15" fill="none" xmlns="http://www.w3.org/2000/svg">
<g clip-path="url(#clip0)">
<path d="M7.64648 0C3.5109 0 0.146484 3.36441 0.146484 7.5C0.146484 11.6356 3.5109 15 7.64648 15C11.7821 15 15.1465 11.6356 15.1465 7.5C15.1465 3.36441 11.7821 0 7.64648 0ZM7.64648 14.1176C3.99707 14.1176 1.02884 11.1494 1.02884 7.5C1.02884 3.85059 3.99707 0.882353 7.64648 0.882353C11.2959 0.882353 14.2641 3.85059 14.2641 7.5C14.2641 11.1494 11.2959 14.1176 7.64648 14.1176ZM12.353 7.94118V8.82353H7.05884V4.41176H7.94119V7.94118H12.353Z" fill="#939BB4"/>
</g>
<defs>
<clipPath id="clip0">
<rect width="15" height="15" fill="white"/>
</clipPath>
</defs>
</svg>
