<?xml version="1.0" encoding="utf-8"?>
<!-- Generator: Adobe Illustrator 27.3.1, SVG Export Plug-In . SVG Version: 6.00 Build 0)  -->
<svg version="1.1" id="Layer_1" xmlns="http://www.w3.org/2000/svg" xmlns:xlink="http://www.w3.org/1999/xlink" x="0px" y="0px"
	 viewBox="0 0 48 48" style="enable-background:new 0 0 48 48;" xml:space="preserve">
<style type="text/css">
	.st0{fill:#F0F9FF;}
	.st1{fill-rule:evenodd;clip-rule:evenodd;fill:#193366;}
</style>
<circle class="st0" cx="24" cy="24" r="24"/>
<g id="Layer_x0020_1">
	<path class="st1" d="M25.5,27.7v-3.1c0-0.5,0.8-0.5,0.8,0v2.8c0.5-0.2,1-0.6,1.5-0.9v-3.6c0-1.1-0.9-2-2-2h-0.5v0.4
		c0,1.1-1.3,1.8-2.2,1.1c-0.6-0.4-0.6-0.9-0.6-1.6H22c-1.1,0-2,0.9-2,2v3.6c0.4,0.4,0.9,0.7,1.5,0.9v-2.8c0-0.5,0.8-0.5,0.8,0v3.1
		C23.2,28,24.4,28,25.5,27.7z M32.5,38.4H15.1c-1,0-1.8-0.8-1.8-1.8V18.2c-2-0.3-3.6-2-3.6-4.2c0-2.3,1.9-4.2,4.2-4.2
		c1.4,0,2.6,0.7,3.4,1.8h15.3c1,0,1.8,0.8,1.8,1.8v23.1C34.4,37.5,33.5,38.4,32.5,38.4z M13.6,17.4c2,0,3.6-1.4,3.6-3.4
		c0-1.9-1.5-3.4-3.4-3.4s-3.4,1.5-3.4,3.4C10.4,15.8,11.8,17.3,13.6,17.4z M14,18.2v18.3c0,0.6,0.5,1.1,1.1,1.1h17.4
		c0.6,0,1.1-0.5,1.1-1.1V13.4c0-0.6-0.5-1.1-1.1-1.1H17.7C18.8,15,17,18.1,14,18.2z M12.2,15.1l-0.5-1c-0.3-0.4,0.4-0.8,0.7-0.4
		l0.4,0.6l2.7-1.5c0.4-0.3,0.8,0.4,0.4,0.7l-3,1.7C12.6,15.3,12.4,15.3,12.2,15.1z M31.1,30.5H16.5c-0.5,0-0.5-0.8,0-0.8h14.6
		C31.6,29.8,31.6,30.5,31.1,30.5z M31.1,33.3H16.5c-0.5,0-0.5-0.8,0-0.8h14.6C31.6,32.5,31.6,33.3,31.1,33.3z M31.1,36H16.5
		c-0.5,0-0.5-0.8,0-0.8h14.6C31.6,35.3,31.6,36,31.1,36z M17.1,21.7c0.1-2.4,1.4-4.7,3.9-5.9v-1.1c0-0.4,0.4-0.8,0.8-0.8
		s0.9-0.1,1.2,0.1c0.1-0.1,0.3-0.1,0.4-0.1h2.5c0.4,0,0.8,0.4,0.8,0.8v1.1c2.6,1.2,3.9,3.7,3.9,6.3c-0.1,3.7-3.1,6.6-6.7,6.6
		C20,28.7,16.9,25.6,17.1,21.7z M25.9,17.5v-1.4h-4.2v1.4C21.7,20.2,25.9,20.2,25.9,17.5z M20.9,16.7c-3.3,1.8-4.1,6.1-1.8,9V23
		c0-1.5,1.3-2.8,2.8-2.8h0.5V20c-0.9-0.5-1.5-1.4-1.5-2.5V16.7z M28.5,25.7c2.3-2.9,1.4-7.2-1.8-9v0.8c0,1.1-0.6,2-1.5,2.5v0.1h0.5
		c1.5,0,2.8,1.3,2.8,2.8V25.7z M24.4,20.3c-0.4,0.1-0.8,0.1-1.2,0v1c0,0.8,1.2,0.8,1.2,0V20.3z M21.7,15.3h0.9c0-0.1,0-0.6,0-0.6
		c-0.1,0-0.9,0-0.9,0V15.3z M23.4,15.3h2.5c0-0.1,0-0.6,0-0.6h-2.5V15.3z"/>
</g>
</svg>
